<svg width="24" height="10" viewBox="0 0 24 10" fill="none" xmlns="http://www.w3.org/2000/svg">
<path fill-rule="evenodd" clip-rule="evenodd" d="M9.99996 2C9.99996 0.895432 10.8953 0 12 0C13.1046 0 14 0.895432 14 2V6C14 7.10457 13.1046 8 12 8C10.8953 8 9.99996 7.10457 9.99996 6V2ZM19.8046 3.43658C20.1825 2.39862 21.3302 1.86345 22.3681 2.24123C23.4061 2.61901 23.9412 3.7667 23.5634 4.80466L22.1954 8.56343C21.8176 9.60138 20.6699 10.1366 19.6319 9.75877C18.594 9.38099 18.0588 8.2333 18.4366 7.19535L19.8046 3.43658ZM1.63192 2.24123C0.593951 2.61901 0.058795 3.7667 0.436603 4.80466L1.80464 8.56343C2.18245 9.60138 3.33016 10.1366 4.36812 9.75877C5.40596 9.38099 5.94124 8.2333 5.56343 7.19535L4.19539 3.43657C3.81758 2.39862 2.66988 1.86345 1.63192 2.24123Z" fill="white"/>
</svg>
